<svg xmlns="http://www.w3.org/2000/svg" xmlns:xlink="http://www.w3.org/1999/xlink" version="1.1" x="0px" y="0px" viewBox="0 0 16 20" style="enable-background:new 0 0 16 16;" xml:space="preserve"><g><path d="M1.5,15c-0.132,0-0.259-0.052-0.354-0.146c-0.111-0.111-0.164-0.269-0.142-0.424l0.5-3.5   c0.016-0.107,0.065-0.207,0.142-0.283l9.5-9.5c0.195-0.195,0.512-0.195,0.707,0l3,3c0.195,0.195,0.195,0.512,0,0.707l-9.5,9.5   c-0.077,0.076-0.176,0.126-0.283,0.142l-3.5,0.5C1.547,14.998,1.523,15,1.5,15z M2.471,11.235l-0.382,2.676l2.675-0.383L13.793,4.5   L11.5,2.207L2.471,11.235z"/><path d="M5,14.5c-0.184,0-0.36-0.102-0.448-0.276l-0.925-1.851l-1.851-0.926c-0.247-0.124-0.347-0.424-0.224-0.671   c0.124-0.246,0.424-0.348,0.671-0.224l2,1c0.097,0.049,0.175,0.127,0.224,0.224l1,2c0.124,0.247,0.023,0.547-0.224,0.671   C5.152,14.483,5.076,14.5,5,14.5z"/><path d="M4,12.5c-0.128,0-0.256-0.049-0.354-0.146c-0.195-0.195-0.195-0.512,0-0.707l7.04-7.04c0.195-0.195,0.512-0.195,0.707,0   s0.195,0.512,0,0.707l-7.04,7.04C4.256,12.451,4.128,12.5,4,12.5z"/><path d="M12.56,6.94c-0.126,0-0.252-0.047-0.349-0.142l-3.04-2.96c-0.198-0.193-0.202-0.509-0.01-0.707   c0.193-0.198,0.512-0.202,0.707-0.01l3.04,2.96c0.198,0.193,0.202,0.509,0.01,0.707C12.819,6.89,12.689,6.94,12.56,6.94z"/></g><text x="0" y="31" fill="#000000" font-size="5px" font-weight="bold" font-family="'Helvetica Neue', Helvetica, Arial-Unicode, Arial, Sans-serif">Created by icon 54</text><text x="0" y="36" fill="#000000" font-size="5px" font-weight="bold" font-family="'Helvetica Neue', Helvetica, Arial-Unicode, Arial, Sans-serif">from the Noun Project</text></svg>