<svg xmlns="http://www.w3.org/2000/svg" xmlns:xlink="http://www.w3.org/1999/xlink" version="1.1" x="0px" y="0px" viewBox="0 0 32 40" enable-background="new 0 0 32 32" xml:space="preserve"><g><g><path fill="#000000" d="M30.5,31.3h-29c-0.4,0-0.8-0.3-0.8-0.8v-29c0-0.4,0.3-0.7,0.8-0.7h29c0.4,0,0.8,0.3,0.8,0.7v29    C31.3,30.9,30.9,31.3,30.5,31.3z M2.3,29.8h27.5V2.3H2.3V29.8z"/></g><g><rect x="16.5" y="21.6" transform="matrix(0.7071 0.7071 -0.7071 0.7071 22.3578 -9.2606)" fill="#000000" width="11.8" height="1.5"/></g><g><polygon fill="#000000" points="27.3,27.3 19.6,27.3 19.6,25.8 25.8,25.8 25.8,19.6 27.3,19.6   "/></g><g><rect x="3.7" y="8.9" transform="matrix(0.7071 0.7071 -0.7071 0.7071 9.6428 -3.9942)" fill="#000000" width="11.8" height="1.5"/></g><g><polygon fill="#000000" points="6.2,12.4 4.7,12.4 4.7,4.7 12.4,4.7 12.4,6.2 6.2,6.2   "/></g></g><text x="0" y="47" fill="#000000" font-size="5px" font-weight="bold" font-family="'Helvetica Neue', Helvetica, Arial-Unicode, Arial, Sans-serif">Created by Creative Stall</text><text x="0" y="52" fill="#000000" font-size="5px" font-weight="bold" font-family="'Helvetica Neue', Helvetica, Arial-Unicode, Arial, Sans-serif">from the Noun Project</text></svg>