<svg xmlns="http://www.w3.org/2000/svg" xmlns:xlink="http://www.w3.org/1999/xlink" version="1.1" x="0px" y="0px" viewBox="0 0 100 125" enable-background="new 0 0 100 100" xml:space="preserve"><path d="M65.5,19.5c-6.617,0-12,5.383-12,12s5.383,12,12,12s12-5.383,12-12S72.117,19.5,65.5,19.5z M65.5,39.5c-4.41,0-8-3.588-8-8  s3.59-8,8-8s8,3.588,8,8S69.91,39.5,65.5,39.5z M87.5,7.5h-72c-3.309,0-6,2.691-6,6v72c0,3.309,2.691,6,6,6h72c3.309,0,6-2.691,6-6  v-72C93.5,10.191,90.809,7.5,87.5,7.5z M15.5,87.5c-1.102,0-2-0.896-2-2V66.852l20-24.211L70.557,87.5H15.5z M89.5,85.5  c0,1.104-0.898,2-2,2H75.746L61.877,70.711L73.5,56.641l16,19.367V85.5z M89.5,69.727l-14.457-17.5  c-0.762-0.922-2.324-0.922-3.086,0L59.281,67.57L35.043,38.227c-0.762-0.922-2.324-0.922-3.086,0L13.5,60.57V13.5  c0-1.104,0.898-2,2-2h72c1.102,0,2,0.896,2,2V69.727z"/><text x="0" y="115" fill="#000000" font-size="5px" font-weight="bold" font-family="'Helvetica Neue', Helvetica, Arial-Unicode, Arial, Sans-serif">Created by Sergey Demushkin</text><text x="0" y="120" fill="#000000" font-size="5px" font-weight="bold" font-family="'Helvetica Neue', Helvetica, Arial-Unicode, Arial, Sans-serif">from the Noun Project</text></svg>