<svg xmlns="http://www.w3.org/2000/svg" xmlns:xlink="http://www.w3.org/1999/xlink" version="1.1" x="0px" y="0px" viewBox="0 0 64 80" enable-background="new 0 0 64 64" xml:space="preserve"><g><path d="M56.421,22.808L40.864,7.251c-1.322-1.322-3.08-2.05-4.95-2.05s-3.628,0.728-4.95,2.05L6.923,31.292   c-1.322,1.322-2.05,3.08-2.05,4.951c0,1.87,0.728,3.628,2.05,4.949L22.479,56.75c1.323,1.321,3.081,2.049,4.95,2.049   c1.87,0,3.627-0.728,4.95-2.05l24.043-24.042C59.148,29.978,59.148,25.537,56.421,22.808z M21.771,22.101l3.657-3.657H46.4   l5.899,5.899H24.014L21.771,22.101z M33.793,10.08c0.566-0.566,1.319-0.878,2.121-0.878s1.556,0.312,2.122,0.878l4.364,4.364   H29.429L33.793,10.08z M29.55,53.921c-1.132,1.133-3.109,1.133-4.243,0L9.751,38.364c-0.566-0.566-0.878-1.32-0.878-2.121   c0-0.802,0.312-1.556,0.878-2.122l9.192-9.192l19.8,19.799L29.55,53.921z M37.914,38.242h7.315l-3.658,3.657L37.914,38.242z    M49.229,34.242H33.914l-5.899-5.899H54.41c-0.111,0.563-0.383,1.101-0.817,1.536L49.229,34.242z"/></g><text x="0" y="79" fill="#000000" font-size="5px" font-weight="bold" font-family="'Helvetica Neue', Helvetica, Arial-Unicode, Arial, Sans-serif">Created by Ralf Schmitzer</text><text x="0" y="84" fill="#000000" font-size="5px" font-weight="bold" font-family="'Helvetica Neue', Helvetica, Arial-Unicode, Arial, Sans-serif">from the Noun Project</text></svg>