<svg xmlns:dc="http://purl.org/dc/elements/1.1/" xmlns:cc="http://creativecommons.org/ns#" xmlns:rdf="http://www.w3.org/1999/02/22-rdf-syntax-ns#" xmlns:svg="http://www.w3.org/2000/svg" xmlns="http://www.w3.org/2000/svg" xmlns:sodipodi="http://sodipodi.sourceforge.net/DTD/sodipodi-0.dtd" xmlns:inkscape="http://www.inkscape.org/namespaces/inkscape" version="1.1" x="0px" y="0px" viewBox="0 0 100 125"><g transform="translate(0,-952.36218)"><path style="text-indent:0;text-transform:none;direction:ltr;block-progression:tb;baseline-shift:baseline;color:#000000;enable-background:accumulate;" d="m 45.736196,961.36369 c -2.2141,0 -4.01,1.80545 -4.01,4.01 l 0,44.75471 c 0,1.0861 -1.3091,1.3299 -1.8794,0.6034 l -12.5975,-17.91092 -0.0012,-0.002 c -1.2766,-1.80443 -3.7825,-2.24253 -5.585,-0.96875 -0.001,6e-4 -0.0015,10e-4 -0.0022,0.002 -0.8957,0.62898 -1.3212,1.44673 -1.4534,2.44968 -0.1322,1.00212 0.0786,2.18351 0.5725,3.30594 0,9e-4 10e-4,0.002 0.0012,0.003 3.94,8.86985 7.8698,17.74935 11.7994,26.62845 2.7101,6.1229 4.0937,10.9301 7.2459,14.1009 3.1523,3.1708 8.2225,5.0238 18.8697,5.0238 7.2015,0 12.4039,-2.6505 15.8803,-6.4844 3.4764,-3.8339 5.2063,-8.8968 5.2397,-13.6925 0,0 0,0 0,0 0.02,-1.9451 0.0199,-3.3445 0,-4.8766 0,0 0,0 0,-0.01 0,0 0,0 0,-0.01 l 0,-28.94998 c 0,-2.21411 -1.8035,-4.01 -4.02,-4.01 -2.2045,0 -4.01,1.79589 -4.01,4.01 0,6.81667 0,13.63328 0,20.44998 0,1.2662 -2,1.2359 -2,0 0,-8.8162 0,-18.1674 0,-25.80998 0,-2.20455 -1.7959,-4.01 -4.01,-4.01 -2.2021,0 -4.01,1.80788 -4.01,4.01 0,7.21333 0,14.42667 0,21.63998 0,1.402 -2,1.3613 -2,0 0,-8.78998 0,-17.57998 0,-26.36998 0,-2.21652 -1.7935,-4.01 -4.01,-4.01 -2.2045,0 -4.01,1.79589 -4.01,4.01 0,7.27333 0,14.54667 0,21.81998 0,1.4136 -2,1.3308 -2,0 0,-12.79801 0,-22.91646 0,-35.69998 0,-2.20455 -1.7959,-4.01 -4.01,-4.01 z" fill="#000000" fill-opacity="1" fill-rule="evenodd" stroke="none" marker="none" visibility="visible" display="inline" overflow="visible"/></g><text x="0" y="115" fill="#000000" font-size="5px" font-weight="bold" font-family="'Helvetica Neue', Helvetica, Arial-Unicode, Arial, Sans-serif">Created by allex</text><text x="0" y="120" fill="#000000" font-size="5px" font-weight="bold" font-family="'Helvetica Neue', Helvetica, Arial-Unicode, Arial, Sans-serif">from the Noun Project</text></svg>